<?xml version="1.0" standalone="no"?><!DOCTYPE svg PUBLIC "-//W3C//DTD SVG 1.1//EN" "http://www.w3.org/Graphics/SVG/1.1/DTD/svg11.dtd"><svg t="1505040724909" class="icon" style="" viewBox="0 0 1024 1024" version="1.1" xmlns="http://www.w3.org/2000/svg" p-id="19634" xmlns:xlink="http://www.w3.org/1999/xlink" width="200" height="200"><defs><style type="text/css"></style></defs><path d="M1024 512l-0.651264 0c-3.34848 49.975296-44.515328 89.6-95.348736 89.6s-92.000256-39.624704-95.352832-89.6l-0.647168 0c0-176.734208-143.26784-320-320-320-176.73216 0-320 143.265792-320 320 0 176.730112 143.26784 320 320 320l0 0.651264c2.152448-0.151552 4.200448-0.651264 6.4-0.651264 53.016576 0 96 42.983424 96 96S571.416576 1024 518.4 1024c-2.199552 0-4.247552-0.499712-6.4-0.638976L512 1024C229.23264 1024 0 794.76736 0 512S229.23264 0 512 0C790.431744 0 1016.48384 222.39232 1023.348736 499.175424c0.151552 2.166784 0.651264 4.225024 0.651264 6.424576 0 0.733184-0.200704 1.409024-0.21504 2.134016C1023.799296 509.175808 1024 510.558208 1024 512z" p-id="19635" fill="#8a8a8a"></path></svg>